<svg xmlns="http://www.w3.org/2000/svg" xmlns:xlink="http://www.w3.org/1999/xlink" width="48" zoomAndPan="magnify" viewBox="0 0 36 36.000001" height="48" preserveAspectRatio="xMidYMid meet" version="1.0"><defs><g/></defs><g fill="#000000" fill-opacity="1"><g transform="translate(10.935691, 21.98515)"><g><path d="M -0.328125 2.234375 C 0.0234375 2.179688 0.316406 2.070312 0.546875 1.90625 C 0.773438 1.738281 0.953125 1.441406 1.078125 1.015625 C 1.203125 0.597656 1.265625 0.015625 1.265625 -0.734375 L 1.265625 -8.078125 C 1.265625 -8.421875 1.238281 -8.664062 1.1875 -8.8125 C 1.132812 -8.96875 1.046875 -9.070312 0.921875 -9.125 C 0.796875 -9.175781 0.59375 -9.210938 0.3125 -9.234375 L 0.3125 -9.5 C 0.789062 -9.476562 1.535156 -9.46875 2.546875 -9.46875 C 3.597656 -9.46875 4.394531 -9.476562 4.9375 -9.5 L 4.9375 -9.234375 C 4.65625 -9.210938 4.445312 -9.175781 4.3125 -9.125 C 4.1875 -9.070312 4.097656 -8.96875 4.046875 -8.8125 C 4.003906 -8.664062 3.984375 -8.421875 3.984375 -8.078125 L 3.984375 -2.046875 C 3.984375 -1.535156 3.96875 -1.082031 3.9375 -0.6875 C 3.90625 -0.289062 3.847656 0.046875 3.765625 0.328125 C 3.546875 0.984375 3.09375 1.507812 2.40625 1.90625 C 1.71875 2.3125 0.804688 2.515625 -0.328125 2.515625 Z M -0.328125 2.234375 "/></g></g></g><g fill="#000000" fill-opacity="1"><g transform="translate(19.308393, 21.98515)"><g><path d="M 4.046875 -3.84375 L 4.046875 -1.5625 C 4.046875 -1.1875 4.082031 -0.910156 4.15625 -0.734375 C 4.238281 -0.566406 4.378906 -0.453125 4.578125 -0.390625 C 4.785156 -0.335938 5.109375 -0.3125 5.546875 -0.3125 L 5.546875 0 C 4.335938 -0.03125 3.414062 -0.046875 2.78125 -0.046875 C 2.351562 -0.046875 1.765625 -0.0351562 1.015625 -0.015625 L 0.375 0 L 0.375 -0.265625 C 0.664062 -0.285156 0.875 -0.320312 1 -0.375 C 1.125 -0.425781 1.207031 -0.523438 1.25 -0.671875 C 1.300781 -0.828125 1.328125 -1.078125 1.328125 -1.421875 L 1.328125 -8.078125 C 1.328125 -8.421875 1.300781 -8.664062 1.25 -8.8125 C 1.207031 -8.96875 1.125 -9.070312 1 -9.125 C 0.875 -9.175781 0.664062 -9.210938 0.375 -9.234375 L 0.375 -9.5 C 0.882812 -9.476562 1.65625 -9.46875 2.6875 -9.46875 L 4.234375 -9.46875 C 4.410156 -9.476562 4.613281 -9.484375 4.84375 -9.484375 C 6.164062 -9.484375 7.171875 -9.242188 7.859375 -8.765625 C 8.546875 -8.285156 8.890625 -7.644531 8.890625 -6.84375 C 8.890625 -6.351562 8.753906 -5.878906 8.484375 -5.421875 C 8.210938 -4.972656 7.753906 -4.597656 7.109375 -4.296875 C 6.460938 -3.992188 5.609375 -3.84375 4.546875 -3.84375 Z M 4.78125 -9.234375 C 4.570312 -9.234375 4.414062 -9.203125 4.3125 -9.140625 C 4.207031 -9.078125 4.132812 -8.960938 4.09375 -8.796875 C 4.0625 -8.640625 4.046875 -8.398438 4.046875 -8.078125 L 4.046875 -4.109375 L 4.421875 -4.109375 C 5.046875 -4.109375 5.472656 -4.335938 5.703125 -4.796875 C 5.941406 -5.265625 6.0625 -5.898438 6.0625 -6.703125 C 6.0625 -7.566406 5.960938 -8.203125 5.765625 -8.609375 C 5.566406 -9.023438 5.238281 -9.234375 4.78125 -9.234375 Z M 4.78125 -9.234375 "/></g></g></g><path stroke-linecap="butt" transform="matrix(0, 0.72973, -0.72973, 0, 18.304186, 10.624514)" fill="none" stroke-linejoin="miter" d="M 0.000666241 0.502495 L 20.315337 0.502495 " stroke="#000000" stroke-width="1" stroke-opacity="1" stroke-miterlimit="4"/><path fill="#ffffff" d="M 8.714844 16.066406 L 28.792969 16.066406 L 28.792969 18.957031 L 8.714844 18.957031 L 8.714844 16.066406 " fill-opacity="1" fill-rule="nonzero"/><g fill="#000000" fill-opacity="1"><g transform="translate(9.669985, 18.108975)"><g><path d="M 0.34375 0.015625 C 0.269531 0.015625 0.203125 0 0.140625 -0.03125 C 0.078125 -0.0625 0.0234375 -0.109375 -0.015625 -0.171875 L 0.0625 -0.265625 C 0.132812 -0.160156 0.226562 -0.109375 0.34375 -0.109375 C 0.5 -0.109375 0.578125 -0.195312 0.578125 -0.375 L 0.578125 -1.140625 L 0.109375 -1.140625 L 0.109375 -1.265625 L 0.703125 -1.265625 L 0.703125 -0.390625 C 0.703125 -0.253906 0.671875 -0.148438 0.609375 -0.078125 C 0.546875 -0.015625 0.457031 0.015625 0.34375 0.015625 Z M 0.34375 0.015625 "/></g></g></g><g fill="#000000" fill-opacity="1"><g transform="translate(11.04507, 18.108975)"><g><path d="M 1 -0.4375 L 0.203125 -0.4375 C 0.210938 -0.332031 0.25 -0.25 0.3125 -0.1875 C 0.382812 -0.132812 0.472656 -0.109375 0.578125 -0.109375 C 0.640625 -0.109375 0.691406 -0.117188 0.734375 -0.140625 C 0.785156 -0.160156 0.832031 -0.191406 0.875 -0.234375 L 0.9375 -0.140625 C 0.894531 -0.0859375 0.84375 -0.046875 0.78125 -0.015625 C 0.71875 0.00390625 0.648438 0.015625 0.578125 0.015625 C 0.484375 0.015625 0.394531 -0.00390625 0.3125 -0.046875 C 0.238281 -0.0859375 0.179688 -0.144531 0.140625 -0.21875 C 0.0976562 -0.289062 0.078125 -0.375 0.078125 -0.46875 C 0.078125 -0.5625 0.0976562 -0.644531 0.140625 -0.71875 C 0.179688 -0.789062 0.234375 -0.847656 0.296875 -0.890625 C 0.367188 -0.929688 0.453125 -0.953125 0.546875 -0.953125 C 0.628906 -0.953125 0.707031 -0.929688 0.78125 -0.890625 C 0.851562 -0.847656 0.90625 -0.789062 0.9375 -0.71875 C 0.976562 -0.644531 1 -0.5625 1 -0.46875 Z M 0.546875 -0.84375 C 0.453125 -0.84375 0.375 -0.8125 0.3125 -0.75 C 0.25 -0.695312 0.210938 -0.625 0.203125 -0.53125 L 0.875 -0.53125 C 0.875 -0.625 0.84375 -0.695312 0.78125 -0.75 C 0.71875 -0.8125 0.640625 -0.84375 0.546875 -0.84375 Z M 0.546875 -0.84375 "/></g></g></g><g fill="#000000" fill-opacity="1"><g transform="translate(12.605278, 18.108975)"><g><path d="M 1 -0.4375 L 0.203125 -0.4375 C 0.210938 -0.332031 0.25 -0.25 0.3125 -0.1875 C 0.382812 -0.132812 0.472656 -0.109375 0.578125 -0.109375 C 0.640625 -0.109375 0.691406 -0.117188 0.734375 -0.140625 C 0.785156 -0.160156 0.832031 -0.191406 0.875 -0.234375 L 0.9375 -0.140625 C 0.894531 -0.0859375 0.84375 -0.046875 0.78125 -0.015625 C 0.71875 0.00390625 0.648438 0.015625 0.578125 0.015625 C 0.484375 0.015625 0.394531 -0.00390625 0.3125 -0.046875 C 0.238281 -0.0859375 0.179688 -0.144531 0.140625 -0.21875 C 0.0976562 -0.289062 0.078125 -0.375 0.078125 -0.46875 C 0.078125 -0.5625 0.0976562 -0.644531 0.140625 -0.71875 C 0.179688 -0.789062 0.234375 -0.847656 0.296875 -0.890625 C 0.367188 -0.929688 0.453125 -0.953125 0.546875 -0.953125 C 0.628906 -0.953125 0.707031 -0.929688 0.78125 -0.890625 C 0.851562 -0.847656 0.90625 -0.789062 0.9375 -0.71875 C 0.976562 -0.644531 1 -0.5625 1 -0.46875 Z M 0.546875 -0.84375 C 0.453125 -0.84375 0.375 -0.8125 0.3125 -0.75 C 0.25 -0.695312 0.210938 -0.625 0.203125 -0.53125 L 0.875 -0.53125 C 0.875 -0.625 0.84375 -0.695312 0.78125 -0.75 C 0.71875 -0.8125 0.640625 -0.84375 0.546875 -0.84375 Z M 0.546875 -0.84375 "/></g></g></g><g fill="#000000" fill-opacity="1"><g transform="translate(14.165487, 18.108975)"><g><path d="M 0.171875 -1.328125 L 0.3125 -1.328125 L 0.3125 0 L 0.171875 0 Z M 0.171875 -1.328125 "/></g></g></g><g fill="#000000" fill-opacity="1"><g transform="translate(15.123592, 18.108975)"><g/></g></g><g fill="#000000" fill-opacity="1"><g transform="translate(16.069116, 18.108975)"><g><path d="M 0.671875 -1.265625 C 0.835938 -1.265625 0.960938 -1.222656 1.046875 -1.140625 C 1.140625 -1.066406 1.1875 -0.960938 1.1875 -0.828125 C 1.1875 -0.691406 1.140625 -0.582031 1.046875 -0.5 C 0.960938 -0.425781 0.835938 -0.390625 0.671875 -0.390625 L 0.34375 -0.390625 L 0.34375 0 L 0.203125 0 L 0.203125 -1.265625 Z M 0.671875 -0.515625 C 0.796875 -0.515625 0.890625 -0.539062 0.953125 -0.59375 C 1.023438 -0.644531 1.0625 -0.722656 1.0625 -0.828125 C 1.0625 -0.929688 1.023438 -1.007812 0.953125 -1.0625 C 0.890625 -1.113281 0.796875 -1.140625 0.671875 -1.140625 L 0.34375 -1.140625 L 0.34375 -0.515625 Z M 0.671875 -0.515625 "/></g></g></g><g fill="#000000" fill-opacity="1"><g transform="translate(17.83422, 18.108975)"><g><path d="M 0.515625 -0.953125 C 0.628906 -0.953125 0.71875 -0.921875 0.78125 -0.859375 C 0.851562 -0.796875 0.890625 -0.703125 0.890625 -0.578125 L 0.890625 0 L 0.765625 0 L 0.765625 -0.140625 C 0.734375 -0.0976562 0.691406 -0.0625 0.640625 -0.03125 C 0.585938 0 0.519531 0.015625 0.4375 0.015625 C 0.332031 0.015625 0.25 -0.0078125 0.1875 -0.0625 C 0.125 -0.113281 0.09375 -0.179688 0.09375 -0.265625 C 0.09375 -0.347656 0.117188 -0.410156 0.171875 -0.453125 C 0.234375 -0.503906 0.332031 -0.53125 0.46875 -0.53125 L 0.765625 -0.53125 L 0.765625 -0.59375 C 0.765625 -0.675781 0.738281 -0.738281 0.6875 -0.78125 C 0.644531 -0.820312 0.582031 -0.84375 0.5 -0.84375 C 0.4375 -0.84375 0.375 -0.832031 0.3125 -0.8125 C 0.257812 -0.789062 0.21875 -0.765625 0.1875 -0.734375 L 0.125 -0.828125 C 0.175781 -0.867188 0.234375 -0.898438 0.296875 -0.921875 C 0.359375 -0.941406 0.429688 -0.953125 0.515625 -0.953125 Z M 0.46875 -0.09375 C 0.539062 -0.09375 0.597656 -0.109375 0.640625 -0.140625 C 0.691406 -0.171875 0.734375 -0.21875 0.765625 -0.28125 L 0.765625 -0.4375 L 0.46875 -0.4375 C 0.300781 -0.4375 0.21875 -0.378906 0.21875 -0.265625 C 0.21875 -0.210938 0.238281 -0.171875 0.28125 -0.140625 C 0.320312 -0.109375 0.382812 -0.09375 0.46875 -0.09375 Z M 0.46875 -0.09375 "/></g></g></g><g fill="#000000" fill-opacity="1"><g transform="translate(19.369267, 18.108975)"><g><path d="M 0.296875 -0.765625 C 0.328125 -0.828125 0.367188 -0.875 0.421875 -0.90625 C 0.484375 -0.9375 0.5625 -0.953125 0.65625 -0.953125 L 0.65625 -0.828125 L 0.625 -0.828125 C 0.519531 -0.828125 0.441406 -0.796875 0.390625 -0.734375 C 0.335938 -0.671875 0.3125 -0.585938 0.3125 -0.484375 L 0.3125 0 L 0.171875 0 L 0.171875 -0.9375 L 0.296875 -0.9375 Z M 0.296875 -0.765625 "/></g></g></g><g fill="#000000" fill-opacity="1"><g transform="translate(20.56462, 18.108975)"><g><path d="M 0.515625 -0.953125 C 0.628906 -0.953125 0.71875 -0.921875 0.78125 -0.859375 C 0.851562 -0.796875 0.890625 -0.703125 0.890625 -0.578125 L 0.890625 0 L 0.765625 0 L 0.765625 -0.140625 C 0.734375 -0.0976562 0.691406 -0.0625 0.640625 -0.03125 C 0.585938 0 0.519531 0.015625 0.4375 0.015625 C 0.332031 0.015625 0.25 -0.0078125 0.1875 -0.0625 C 0.125 -0.113281 0.09375 -0.179688 0.09375 -0.265625 C 0.09375 -0.347656 0.117188 -0.410156 0.171875 -0.453125 C 0.234375 -0.503906 0.332031 -0.53125 0.46875 -0.53125 L 0.765625 -0.53125 L 0.765625 -0.59375 C 0.765625 -0.675781 0.738281 -0.738281 0.6875 -0.78125 C 0.644531 -0.820312 0.582031 -0.84375 0.5 -0.84375 C 0.4375 -0.84375 0.375 -0.832031 0.3125 -0.8125 C 0.257812 -0.789062 0.21875 -0.765625 0.1875 -0.734375 L 0.125 -0.828125 C 0.175781 -0.867188 0.234375 -0.898438 0.296875 -0.921875 C 0.359375 -0.941406 0.429688 -0.953125 0.515625 -0.953125 Z M 0.46875 -0.09375 C 0.539062 -0.09375 0.597656 -0.109375 0.640625 -0.140625 C 0.691406 -0.171875 0.734375 -0.21875 0.765625 -0.28125 L 0.765625 -0.4375 L 0.46875 -0.4375 C 0.300781 -0.4375 0.21875 -0.378906 0.21875 -0.265625 C 0.21875 -0.210938 0.238281 -0.171875 0.28125 -0.140625 C 0.320312 -0.109375 0.382812 -0.09375 0.46875 -0.09375 Z M 0.46875 -0.09375 "/></g></g></g><g fill="#000000" fill-opacity="1"><g transform="translate(22.099667, 18.108975)"><g><path d="M 1.046875 -1.328125 L 1.046875 0 L 0.921875 0 L 0.921875 -0.1875 C 0.878906 -0.125 0.828125 -0.0703125 0.765625 -0.03125 C 0.703125 0 0.628906 0.015625 0.546875 0.015625 C 0.460938 0.015625 0.382812 -0.00390625 0.3125 -0.046875 C 0.238281 -0.0859375 0.179688 -0.144531 0.140625 -0.21875 C 0.0976562 -0.289062 0.078125 -0.375 0.078125 -0.46875 C 0.078125 -0.5625 0.0976562 -0.644531 0.140625 -0.71875 C 0.179688 -0.789062 0.238281 -0.847656 0.3125 -0.890625 C 0.382812 -0.929688 0.460938 -0.953125 0.546875 -0.953125 C 0.628906 -0.953125 0.703125 -0.9375 0.765625 -0.90625 C 0.828125 -0.875 0.875 -0.828125 0.90625 -0.765625 L 0.90625 -1.328125 Z M 0.5625 -0.109375 C 0.625 -0.109375 0.679688 -0.125 0.734375 -0.15625 C 0.796875 -0.1875 0.84375 -0.226562 0.875 -0.28125 C 0.90625 -0.332031 0.921875 -0.394531 0.921875 -0.46875 C 0.921875 -0.539062 0.90625 -0.601562 0.875 -0.65625 C 0.84375 -0.71875 0.796875 -0.765625 0.734375 -0.796875 C 0.679688 -0.828125 0.625 -0.84375 0.5625 -0.84375 C 0.5 -0.84375 0.4375 -0.828125 0.375 -0.796875 C 0.320312 -0.765625 0.28125 -0.71875 0.25 -0.65625 C 0.226562 -0.601562 0.21875 -0.539062 0.21875 -0.46875 C 0.21875 -0.394531 0.226562 -0.332031 0.25 -0.28125 C 0.28125 -0.226562 0.320312 -0.1875 0.375 -0.15625 C 0.4375 -0.125 0.5 -0.109375 0.5625 -0.109375 Z M 0.5625 -0.109375 "/></g></g></g><g fill="#000000" fill-opacity="1"><g transform="translate(23.792877, 18.108975)"><g><path d="M 0.515625 -0.953125 C 0.628906 -0.953125 0.71875 -0.921875 0.78125 -0.859375 C 0.851562 -0.796875 0.890625 -0.703125 0.890625 -0.578125 L 0.890625 0 L 0.765625 0 L 0.765625 -0.140625 C 0.734375 -0.0976562 0.691406 -0.0625 0.640625 -0.03125 C 0.585938 0 0.519531 0.015625 0.4375 0.015625 C 0.332031 0.015625 0.25 -0.0078125 0.1875 -0.0625 C 0.125 -0.113281 0.09375 -0.179688 0.09375 -0.265625 C 0.09375 -0.347656 0.117188 -0.410156 0.171875 -0.453125 C 0.234375 -0.503906 0.332031 -0.53125 0.46875 -0.53125 L 0.765625 -0.53125 L 0.765625 -0.59375 C 0.765625 -0.675781 0.738281 -0.738281 0.6875 -0.78125 C 0.644531 -0.820312 0.582031 -0.84375 0.5 -0.84375 C 0.4375 -0.84375 0.375 -0.832031 0.3125 -0.8125 C 0.257812 -0.789062 0.21875 -0.765625 0.1875 -0.734375 L 0.125 -0.828125 C 0.175781 -0.867188 0.234375 -0.898438 0.296875 -0.921875 C 0.359375 -0.941406 0.429688 -0.953125 0.515625 -0.953125 Z M 0.46875 -0.09375 C 0.539062 -0.09375 0.597656 -0.109375 0.640625 -0.140625 C 0.691406 -0.171875 0.734375 -0.21875 0.765625 -0.28125 L 0.765625 -0.4375 L 0.46875 -0.4375 C 0.300781 -0.4375 0.21875 -0.378906 0.21875 -0.265625 C 0.21875 -0.210938 0.238281 -0.171875 0.28125 -0.140625 C 0.320312 -0.109375 0.382812 -0.09375 0.46875 -0.09375 Z M 0.46875 -0.09375 "/></g></g></g><g fill="#000000" fill-opacity="1"><g transform="translate(25.327924, 18.108975)"><g><path d="M 0.96875 -0.9375 L 0.546875 0 L 0.421875 0 L 0 -0.9375 L 0.140625 -0.9375 L 0.484375 -0.140625 L 0.84375 -0.9375 Z M 0.96875 -0.9375 "/></g></g></g><g fill="#000000" fill-opacity="1"><g transform="translate(26.776699, 18.108975)"><g><path d="M 0.515625 -0.953125 C 0.628906 -0.953125 0.71875 -0.921875 0.78125 -0.859375 C 0.851562 -0.796875 0.890625 -0.703125 0.890625 -0.578125 L 0.890625 0 L 0.765625 0 L 0.765625 -0.140625 C 0.734375 -0.0976562 0.691406 -0.0625 0.640625 -0.03125 C 0.585938 0 0.519531 0.015625 0.4375 0.015625 C 0.332031 0.015625 0.25 -0.0078125 0.1875 -0.0625 C 0.125 -0.113281 0.09375 -0.179688 0.09375 -0.265625 C 0.09375 -0.347656 0.117188 -0.410156 0.171875 -0.453125 C 0.234375 -0.503906 0.332031 -0.53125 0.46875 -0.53125 L 0.765625 -0.53125 L 0.765625 -0.59375 C 0.765625 -0.675781 0.738281 -0.738281 0.6875 -0.78125 C 0.644531 -0.820312 0.582031 -0.84375 0.5 -0.84375 C 0.4375 -0.84375 0.375 -0.832031 0.3125 -0.8125 C 0.257812 -0.789062 0.21875 -0.765625 0.1875 -0.734375 L 0.125 -0.828125 C 0.175781 -0.867188 0.234375 -0.898438 0.296875 -0.921875 C 0.359375 -0.941406 0.429688 -0.953125 0.515625 -0.953125 Z M 0.46875 -0.09375 C 0.539062 -0.09375 0.597656 -0.109375 0.640625 -0.140625 C 0.691406 -0.171875 0.734375 -0.21875 0.765625 -0.28125 L 0.765625 -0.4375 L 0.46875 -0.4375 C 0.300781 -0.4375 0.21875 -0.378906 0.21875 -0.265625 C 0.21875 -0.210938 0.238281 -0.171875 0.28125 -0.140625 C 0.320312 -0.109375 0.382812 -0.09375 0.46875 -0.09375 Z M 0.46875 -0.09375 "/></g></g></g></svg>